<mxfile host="Electron" agent="Mozilla/5.0 (Windows NT 10.0; Win64; x64) AppleWebKit/537.36 (KHTML, like Gecko) draw.io/27.0.2 Chrome/134.0.6998.205 Electron/35.3.0 Safari/537.36" version="27.0.2">
  <diagram name="Page-1" id="jM_GZ5kz1SEa9MwAPTD0">
    <mxGraphModel dx="1892" dy="1726" grid="1" gridSize="10" guides="1" tooltips="1" connect="1" arrows="1" fold="1" page="1" pageScale="1" pageWidth="850" pageHeight="1100" math="0" shadow="0">
      <root>
        <mxCell id="0" />
        <mxCell id="1" parent="0" />
        <mxCell id="TO3W1UWGub0B4Q344IL6-1" value="" style="rounded=0;whiteSpace=wrap;html=1;" vertex="1" parent="1">
          <mxGeometry x="40" y="40" width="120" height="60" as="geometry" />
        </mxCell>
        <mxCell id="TO3W1UWGub0B4Q344IL6-2" value="Admin" style="text;html=1;align=center;verticalAlign=middle;whiteSpace=wrap;rounded=0;" vertex="1" parent="1">
          <mxGeometry x="70" y="55" width="60" height="30" as="geometry" />
        </mxCell>
        <mxCell id="TO3W1UWGub0B4Q344IL6-3" value="" style="rounded=0;whiteSpace=wrap;html=1;" vertex="1" parent="1">
          <mxGeometry x="680" y="40" width="120" height="60" as="geometry" />
        </mxCell>
        <mxCell id="TO3W1UWGub0B4Q344IL6-4" value="System" style="text;html=1;align=center;verticalAlign=middle;whiteSpace=wrap;rounded=0;" vertex="1" parent="1">
          <mxGeometry x="710" y="55" width="60" height="30" as="geometry" />
        </mxCell>
        <mxCell id="TO3W1UWGub0B4Q344IL6-5" value="" style="rounded=0;whiteSpace=wrap;html=1;" vertex="1" parent="1">
          <mxGeometry x="40" y="500" width="120" height="60" as="geometry" />
        </mxCell>
        <mxCell id="TO3W1UWGub0B4Q344IL6-6" value="Database" style="text;html=1;align=center;verticalAlign=middle;whiteSpace=wrap;rounded=0;" vertex="1" parent="1">
          <mxGeometry x="70" y="515" width="60" height="30" as="geometry" />
        </mxCell>
        <mxCell id="TO3W1UWGub0B4Q344IL6-7" value="" style="rounded=0;whiteSpace=wrap;html=1;" vertex="1" parent="1">
          <mxGeometry x="680" y="500" width="120" height="60" as="geometry" />
        </mxCell>
        <mxCell id="TO3W1UWGub0B4Q344IL6-8" value="User" style="text;html=1;align=center;verticalAlign=middle;whiteSpace=wrap;rounded=0;" vertex="1" parent="1">
          <mxGeometry x="710" y="515" width="60" height="30" as="geometry" />
        </mxCell>
        <mxCell id="TO3W1UWGub0B4Q344IL6-10" value="" style="endArrow=none;html=1;rounded=0;exitX=1;exitY=0;exitDx=0;exitDy=0;entryX=0;entryY=0;entryDx=0;entryDy=0;" edge="1" parent="1" source="TO3W1UWGub0B4Q344IL6-1" target="TO3W1UWGub0B4Q344IL6-3">
          <mxGeometry width="50" height="50" relative="1" as="geometry">
            <mxPoint x="230" y="100" as="sourcePoint" />
            <mxPoint x="280" y="50" as="targetPoint" />
          </mxGeometry>
        </mxCell>
        <mxCell id="TO3W1UWGub0B4Q344IL6-11" value="" style="endArrow=classic;html=1;rounded=0;" edge="1" parent="1">
          <mxGeometry width="50" height="50" relative="1" as="geometry">
            <mxPoint x="350" y="30" as="sourcePoint" />
            <mxPoint x="410" y="30" as="targetPoint" />
          </mxGeometry>
        </mxCell>
        <mxCell id="TO3W1UWGub0B4Q344IL6-12" value="&lt;span style=&quot;text-wrap-mode: nowrap;&quot;&gt;1.1.1: view pending gift listings&lt;/span&gt;" style="text;html=1;align=center;verticalAlign=middle;whiteSpace=wrap;rounded=0;" vertex="1" parent="1">
          <mxGeometry x="320" y="-10" width="140" height="30" as="geometry" />
        </mxCell>
        <mxCell id="TO3W1UWGub0B4Q344IL6-13" value="" style="endArrow=none;html=1;rounded=0;entryX=0;entryY=1;entryDx=0;entryDy=0;exitX=1;exitY=0;exitDx=0;exitDy=0;" edge="1" parent="1" source="TO3W1UWGub0B4Q344IL6-5" target="TO3W1UWGub0B4Q344IL6-3">
          <mxGeometry width="50" height="50" relative="1" as="geometry">
            <mxPoint x="600" y="170" as="sourcePoint" />
            <mxPoint x="650" y="120" as="targetPoint" />
          </mxGeometry>
        </mxCell>
        <mxCell id="TO3W1UWGub0B4Q344IL6-14" value="" style="endArrow=classic;html=1;rounded=0;" edge="1" parent="1">
          <mxGeometry width="50" height="50" relative="1" as="geometry">
            <mxPoint x="440" y="260" as="sourcePoint" />
            <mxPoint x="380" y="310" as="targetPoint" />
          </mxGeometry>
        </mxCell>
        <mxCell id="TO3W1UWGub0B4Q344IL6-15" value="&lt;span style=&quot;text-wrap-mode: nowrap;&quot;&gt;1.1.2: bring all pending&amp;nbsp; gifts&lt;/span&gt;" style="text;html=1;align=center;verticalAlign=middle;whiteSpace=wrap;rounded=0;" vertex="1" parent="1">
          <mxGeometry x="260" y="260" width="150" height="30" as="geometry" />
        </mxCell>
        <mxCell id="TO3W1UWGub0B4Q344IL6-16" value="" style="endArrow=none;html=1;rounded=0;entryX=0;entryY=1;entryDx=0;entryDy=0;exitX=0;exitY=0;exitDx=0;exitDy=0;" edge="1" parent="1" source="TO3W1UWGub0B4Q344IL6-5" target="TO3W1UWGub0B4Q344IL6-1">
          <mxGeometry width="50" height="50" relative="1" as="geometry">
            <mxPoint x="40" y="390" as="sourcePoint" />
            <mxPoint x="90" y="340" as="targetPoint" />
          </mxGeometry>
        </mxCell>
        <mxCell id="TO3W1UWGub0B4Q344IL6-17" value="" style="endArrow=classic;html=1;rounded=0;" edge="1" parent="1">
          <mxGeometry width="50" height="50" relative="1" as="geometry">
            <mxPoint x="30" y="360" as="sourcePoint" />
            <mxPoint x="30" y="310" as="targetPoint" />
          </mxGeometry>
        </mxCell>
        <mxCell id="TO3W1UWGub0B4Q344IL6-18" value="&lt;span style=&quot;text-wrap-mode: nowrap;&quot;&gt;1.1.3: display list of pending gifts&lt;/span&gt;" style="text;html=1;align=center;verticalAlign=middle;whiteSpace=wrap;rounded=0;" vertex="1" parent="1">
          <mxGeometry x="-140" y="320" width="160" height="30" as="geometry" />
        </mxCell>
        <mxCell id="TO3W1UWGub0B4Q344IL6-19" value="" style="endArrow=none;html=1;rounded=0;exitX=1;exitY=0.25;exitDx=0;exitDy=0;entryX=0;entryY=0.25;entryDx=0;entryDy=0;" edge="1" parent="1" source="TO3W1UWGub0B4Q344IL6-1" target="TO3W1UWGub0B4Q344IL6-3">
          <mxGeometry width="50" height="50" relative="1" as="geometry">
            <mxPoint x="190" y="130" as="sourcePoint" />
            <mxPoint x="240" y="80" as="targetPoint" />
          </mxGeometry>
        </mxCell>
        <mxCell id="TO3W1UWGub0B4Q344IL6-20" value="" style="endArrow=classic;html=1;rounded=0;" edge="1" parent="1">
          <mxGeometry width="50" height="50" relative="1" as="geometry">
            <mxPoint x="350" y="69.5" as="sourcePoint" />
            <mxPoint x="410" y="69.5" as="targetPoint" />
          </mxGeometry>
        </mxCell>
        <mxCell id="TO3W1UWGub0B4Q344IL6-21" value="&lt;span style=&quot;text-wrap-mode: nowrap;&quot;&gt;1.1.4: approve gift&lt;/span&gt;" style="text;html=1;align=center;verticalAlign=middle;whiteSpace=wrap;rounded=0;" vertex="1" parent="1">
          <mxGeometry x="350" y="70" width="60" height="30" as="geometry" />
        </mxCell>
        <mxCell id="TO3W1UWGub0B4Q344IL6-22" value="" style="endArrow=none;html=1;rounded=0;entryX=0.25;entryY=1;entryDx=0;entryDy=0;exitX=1;exitY=0.25;exitDx=0;exitDy=0;" edge="1" parent="1" source="TO3W1UWGub0B4Q344IL6-5" target="TO3W1UWGub0B4Q344IL6-3">
          <mxGeometry width="50" height="50" relative="1" as="geometry">
            <mxPoint x="630" y="240" as="sourcePoint" />
            <mxPoint x="680" y="190" as="targetPoint" />
          </mxGeometry>
        </mxCell>
        <mxCell id="TO3W1UWGub0B4Q344IL6-24" value="" style="endArrow=classic;html=1;rounded=0;" edge="1" parent="1">
          <mxGeometry width="50" height="50" relative="1" as="geometry">
            <mxPoint x="460" y="300" as="sourcePoint" />
            <mxPoint x="400" y="350" as="targetPoint" />
          </mxGeometry>
        </mxCell>
        <mxCell id="TO3W1UWGub0B4Q344IL6-25" value="&lt;span style=&quot;text-wrap-mode: nowrap;&quot;&gt;1.1.5: update gift status(approved)&lt;/span&gt;" style="text;html=1;align=center;verticalAlign=middle;whiteSpace=wrap;rounded=0;" vertex="1" parent="1">
          <mxGeometry x="440" y="330" width="150" height="30" as="geometry" />
        </mxCell>
        <mxCell id="TO3W1UWGub0B4Q344IL6-27" value="" style="endArrow=none;html=1;rounded=0;exitX=1;exitY=1;exitDx=0;exitDy=0;entryX=0;entryY=1;entryDx=0;entryDy=0;" edge="1" parent="1" source="TO3W1UWGub0B4Q344IL6-1" target="TO3W1UWGub0B4Q344IL6-3">
          <mxGeometry width="50" height="50" relative="1" as="geometry">
            <mxPoint x="190" y="140" as="sourcePoint" />
            <mxPoint x="240" y="90" as="targetPoint" />
          </mxGeometry>
        </mxCell>
        <mxCell id="TO3W1UWGub0B4Q344IL6-28" value="" style="endArrow=classic;html=1;rounded=0;" edge="1" parent="1">
          <mxGeometry width="50" height="50" relative="1" as="geometry">
            <mxPoint x="350" y="110" as="sourcePoint" />
            <mxPoint x="410" y="110" as="targetPoint" />
          </mxGeometry>
        </mxCell>
        <mxCell id="TO3W1UWGub0B4Q344IL6-29" value="&lt;span style=&quot;text-wrap-mode: nowrap;&quot;&gt;1.1.6: reject gift&lt;/span&gt;" style="text;html=1;align=center;verticalAlign=middle;whiteSpace=wrap;rounded=0;" vertex="1" parent="1">
          <mxGeometry x="350" y="110.5" width="60" height="30" as="geometry" />
        </mxCell>
        <mxCell id="TO3W1UWGub0B4Q344IL6-30" value="" style="endArrow=none;html=1;rounded=0;entryX=1;entryY=1;entryDx=0;entryDy=0;exitX=1;exitY=1;exitDx=0;exitDy=0;edgeStyle=orthogonalEdgeStyle;curved=1;" edge="1" parent="1" source="TO3W1UWGub0B4Q344IL6-5" target="TO3W1UWGub0B4Q344IL6-3">
          <mxGeometry width="50" height="50" relative="1" as="geometry">
            <mxPoint x="680" y="310" as="sourcePoint" />
            <mxPoint x="730" y="260" as="targetPoint" />
            <Array as="points">
              <mxPoint x="800" y="560" />
            </Array>
          </mxGeometry>
        </mxCell>
        <mxCell id="TO3W1UWGub0B4Q344IL6-31" value="" style="endArrow=classic;html=1;rounded=0;" edge="1" parent="1">
          <mxGeometry width="50" height="50" relative="1" as="geometry">
            <mxPoint x="760" y="360" as="sourcePoint" />
            <mxPoint x="710" y="410" as="targetPoint" />
          </mxGeometry>
        </mxCell>
        <mxCell id="TO3W1UWGub0B4Q344IL6-32" value="&lt;span style=&quot;text-wrap-mode: nowrap;&quot;&gt;1.1.7: update gift status(rejected)&lt;/span&gt;" style="text;html=1;align=center;verticalAlign=middle;whiteSpace=wrap;rounded=0;" vertex="1" parent="1">
          <mxGeometry x="750" y="380" width="150" height="30" as="geometry" />
        </mxCell>
        <mxCell id="TO3W1UWGub0B4Q344IL6-33" value="" style="endArrow=none;html=1;rounded=0;entryX=0.5;entryY=1;entryDx=0;entryDy=0;exitX=0;exitY=0;exitDx=0;exitDy=0;" edge="1" parent="1" source="TO3W1UWGub0B4Q344IL6-7" target="TO3W1UWGub0B4Q344IL6-3">
          <mxGeometry width="50" height="50" relative="1" as="geometry">
            <mxPoint x="670" y="300" as="sourcePoint" />
            <mxPoint x="720" y="250" as="targetPoint" />
          </mxGeometry>
        </mxCell>
        <mxCell id="TO3W1UWGub0B4Q344IL6-34" value="" style="endArrow=classic;html=1;rounded=0;" edge="1" parent="1">
          <mxGeometry width="50" height="50" relative="1" as="geometry">
            <mxPoint x="700" y="220" as="sourcePoint" />
            <mxPoint x="690" y="280" as="targetPoint" />
          </mxGeometry>
        </mxCell>
        <mxCell id="TO3W1UWGub0B4Q344IL6-35" value="&lt;span style=&quot;text-wrap-mode: nowrap;&quot;&gt;1.1.8: notify gift owner of decision&lt;/span&gt;" style="text;html=1;align=center;verticalAlign=middle;whiteSpace=wrap;rounded=0;" vertex="1" parent="1">
          <mxGeometry x="530" y="230" width="160" height="30" as="geometry" />
        </mxCell>
        <mxCell id="TO3W1UWGub0B4Q344IL6-36" value="" style="endArrow=none;html=1;rounded=0;entryX=0.25;entryY=0;entryDx=0;entryDy=0;edgeStyle=orthogonalEdgeStyle;curved=1;exitX=0.75;exitY=0;exitDx=0;exitDy=0;" edge="1" parent="1" source="TO3W1UWGub0B4Q344IL6-1" target="TO3W1UWGub0B4Q344IL6-3">
          <mxGeometry width="50" height="50" relative="1" as="geometry">
            <mxPoint x="390" y="-90" as="sourcePoint" />
            <mxPoint x="440" y="-140" as="targetPoint" />
            <Array as="points">
              <mxPoint x="130" y="-50" />
              <mxPoint x="710" y="-50" />
            </Array>
          </mxGeometry>
        </mxCell>
        <mxCell id="TO3W1UWGub0B4Q344IL6-37" value="" style="endArrow=classic;html=1;rounded=0;" edge="1" parent="1">
          <mxGeometry width="50" height="50" relative="1" as="geometry">
            <mxPoint x="430" y="-70" as="sourcePoint" />
            <mxPoint x="380" y="-70" as="targetPoint" />
          </mxGeometry>
        </mxCell>
        <mxCell id="TO3W1UWGub0B4Q344IL6-38" value="&lt;span style=&quot;text-wrap-mode: nowrap;&quot;&gt;1.1.9: action completed&lt;/span&gt;" style="text;html=1;align=center;verticalAlign=middle;whiteSpace=wrap;rounded=0;" vertex="1" parent="1">
          <mxGeometry x="350" y="-100" width="100" height="30" as="geometry" />
        </mxCell>
        <mxCell id="TO3W1UWGub0B4Q344IL6-39" value="" style="endArrow=none;html=1;rounded=0;exitX=1;exitY=0;exitDx=0;exitDy=0;edgeStyle=orthogonalEdgeStyle;curved=1;entryX=1;entryY=0.75;entryDx=0;entryDy=0;" edge="1" parent="1" source="TO3W1UWGub0B4Q344IL6-7" target="TO3W1UWGub0B4Q344IL6-3">
          <mxGeometry width="50" height="50" relative="1" as="geometry">
            <mxPoint x="890" y="500" as="sourcePoint" />
            <mxPoint x="940" y="450" as="targetPoint" />
            <Array as="points">
              <mxPoint x="1000" y="500" />
              <mxPoint x="1000" y="85" />
            </Array>
          </mxGeometry>
        </mxCell>
        <mxCell id="TO3W1UWGub0B4Q344IL6-40" value="" style="endArrow=classic;html=1;rounded=0;" edge="1" parent="1">
          <mxGeometry width="50" height="50" relative="1" as="geometry">
            <mxPoint x="1020" y="310" as="sourcePoint" />
            <mxPoint x="1020" y="260" as="targetPoint" />
          </mxGeometry>
        </mxCell>
        <mxCell id="TO3W1UWGub0B4Q344IL6-41" value="&lt;span style=&quot;text-wrap-mode: nowrap;&quot;&gt;1.2.1: accept gift request (gift ID, request ID)&lt;/span&gt;" style="text;html=1;align=center;verticalAlign=middle;whiteSpace=wrap;rounded=0;" vertex="1" parent="1">
          <mxGeometry x="1030" y="270" width="220" height="30" as="geometry" />
        </mxCell>
        <mxCell id="TO3W1UWGub0B4Q344IL6-42" value="" style="endArrow=none;html=1;rounded=0;exitX=1;exitY=0.25;exitDx=0;exitDy=0;edgeStyle=orthogonalEdgeStyle;curved=1;entryX=0.75;entryY=0;entryDx=0;entryDy=0;" edge="1" parent="1" source="TO3W1UWGub0B4Q344IL6-3" target="TO3W1UWGub0B4Q344IL6-3">
          <mxGeometry width="50" height="50" relative="1" as="geometry">
            <mxPoint x="920" y="20" as="sourcePoint" />
            <mxPoint x="770" as="targetPoint" />
            <Array as="points">
              <mxPoint x="851" y="55" />
              <mxPoint x="851" y="-30" />
              <mxPoint x="770" y="-30" />
            </Array>
          </mxGeometry>
        </mxCell>
        <mxCell id="TO3W1UWGub0B4Q344IL6-43" value="" style="endArrow=classic;html=1;rounded=0;" edge="1" parent="1">
          <mxGeometry width="50" height="50" relative="1" as="geometry">
            <mxPoint x="870" y="25" as="sourcePoint" />
            <mxPoint x="870" y="-15" as="targetPoint" />
          </mxGeometry>
        </mxCell>
        <mxCell id="TO3W1UWGub0B4Q344IL6-44" value="&lt;span style=&quot;text-wrap-mode: nowrap;&quot;&gt;1.2.2: process acceptance&lt;/span&gt;&lt;div style=&quot;text-wrap-mode: nowrap;&quot;&gt;(validation + update)&lt;/div&gt;" style="text;html=1;align=center;verticalAlign=middle;whiteSpace=wrap;rounded=0;" vertex="1" parent="1">
          <mxGeometry x="880" y="-10" width="130" height="30" as="geometry" />
        </mxCell>
        <mxCell id="TO3W1UWGub0B4Q344IL6-45" value="" style="endArrow=none;html=1;rounded=0;exitX=0.5;exitY=0;exitDx=0;exitDy=0;edgeStyle=orthogonalEdgeStyle;curved=1;entryX=0.987;entryY=0.64;entryDx=0;entryDy=0;entryPerimeter=0;" edge="1" parent="1" source="TO3W1UWGub0B4Q344IL6-3" target="TO3W1UWGub0B4Q344IL6-7">
          <mxGeometry width="50" height="50" relative="1" as="geometry">
            <mxPoint x="750" y="-60" as="sourcePoint" />
            <mxPoint x="800" y="-110" as="targetPoint" />
            <Array as="points">
              <mxPoint x="740" y="-130" />
              <mxPoint x="1260" y="-130" />
              <mxPoint x="1260" y="538" />
            </Array>
          </mxGeometry>
        </mxCell>
        <mxCell id="TO3W1UWGub0B4Q344IL6-46" value="" style="endArrow=classic;html=1;rounded=0;" edge="1" parent="1">
          <mxGeometry width="50" height="50" relative="1" as="geometry">
            <mxPoint x="1290" y="150" as="sourcePoint" />
            <mxPoint x="1290" y="200" as="targetPoint" />
          </mxGeometry>
        </mxCell>
        <mxCell id="TO3W1UWGub0B4Q344IL6-47" value="&lt;span style=&quot;text-wrap-mode: nowrap;&quot;&gt;1.2.3: success confirmation&lt;/span&gt;" style="text;html=1;align=center;verticalAlign=middle;whiteSpace=wrap;rounded=0;" vertex="1" parent="1">
          <mxGeometry x="1300" y="160" width="130" height="30" as="geometry" />
        </mxCell>
      </root>
    </mxGraphModel>
  </diagram>
</mxfile>
